<mxfile host="app.diagrams.net" modified="2023-05-29T12:21:02.347Z" agent="Mozilla/5.0 (Windows NT 10.0; Win64; x64; rv:109.0) Gecko/20100101 Firefox/113.0" etag="MFGEnxZncc1ZQTqGu8bW" version="21.3.5" type="device">
  <diagram name="Page-1" id="S0CkqSPzeh-nrvHPKSQt">
    <mxGraphModel dx="673" dy="926" grid="1" gridSize="10" guides="1" tooltips="1" connect="1" arrows="1" fold="1" page="1" pageScale="1" pageWidth="850" pageHeight="1100" math="0" shadow="0">
      <root>
        <mxCell id="0" />
        <mxCell id="1" parent="0" />
        <mxCell id="nYXTh7Ou2DbSZ5SwQx2i-11" value="7" style="ellipse;whiteSpace=wrap;html=1;aspect=fixed;" vertex="1" parent="1">
          <mxGeometry x="220" y="390" width="80" height="80" as="geometry" />
        </mxCell>
        <mxCell id="nYXTh7Ou2DbSZ5SwQx2i-12" value="10" style="ellipse;whiteSpace=wrap;html=1;aspect=fixed;" vertex="1" parent="1">
          <mxGeometry x="360" y="485" width="80" height="80" as="geometry" />
        </mxCell>
        <mxCell id="nYXTh7Ou2DbSZ5SwQx2i-13" value="11" style="ellipse;whiteSpace=wrap;html=1;aspect=fixed;" vertex="1" parent="1">
          <mxGeometry x="450" y="395" width="80" height="80" as="geometry" />
        </mxCell>
        <mxCell id="nYXTh7Ou2DbSZ5SwQx2i-14" value="9" style="ellipse;whiteSpace=wrap;html=1;aspect=fixed;" vertex="1" parent="1">
          <mxGeometry x="360" y="295" width="80" height="80" as="geometry" />
        </mxCell>
        <mxCell id="nYXTh7Ou2DbSZ5SwQx2i-15" value="8" style="ellipse;whiteSpace=wrap;html=1;aspect=fixed;" vertex="1" parent="1">
          <mxGeometry x="220" y="250" width="80" height="80" as="geometry" />
        </mxCell>
        <mxCell id="nYXTh7Ou2DbSZ5SwQx2i-16" value="" style="ellipse;whiteSpace=wrap;html=1;aspect=fixed;" vertex="1" parent="1">
          <mxGeometry x="700" y="690" width="80" height="80" as="geometry" />
        </mxCell>
        <mxCell id="nYXTh7Ou2DbSZ5SwQx2i-19" value="4" style="ellipse;whiteSpace=wrap;html=1;aspect=fixed;" vertex="1" parent="1">
          <mxGeometry x="430" y="790" width="80" height="80" as="geometry" />
        </mxCell>
        <mxCell id="nYXTh7Ou2DbSZ5SwQx2i-20" value="2" style="ellipse;whiteSpace=wrap;html=1;aspect=fixed;" vertex="1" parent="1">
          <mxGeometry x="330" y="700" width="80" height="80" as="geometry" />
        </mxCell>
        <mxCell id="nYXTh7Ou2DbSZ5SwQx2i-22" value="" style="ellipse;whiteSpace=wrap;html=1;aspect=fixed;" vertex="1" parent="1">
          <mxGeometry x="180" y="700" width="80" height="80" as="geometry" />
        </mxCell>
        <mxCell id="nYXTh7Ou2DbSZ5SwQx2i-23" value="3" style="ellipse;whiteSpace=wrap;html=1;aspect=fixed;" vertex="1" parent="1">
          <mxGeometry x="425" y="610" width="80" height="80" as="geometry" />
        </mxCell>
        <mxCell id="nYXTh7Ou2DbSZ5SwQx2i-57" value="" style="edgeStyle=orthogonalEdgeStyle;rounded=0;orthogonalLoop=1;jettySize=auto;html=1;" edge="1" parent="1" source="nYXTh7Ou2DbSZ5SwQx2i-24" target="nYXTh7Ou2DbSZ5SwQx2i-16">
          <mxGeometry relative="1" as="geometry" />
        </mxCell>
        <mxCell id="nYXTh7Ou2DbSZ5SwQx2i-24" value="5" style="ellipse;whiteSpace=wrap;html=1;aspect=fixed;" vertex="1" parent="1">
          <mxGeometry x="545" y="690" width="80" height="80" as="geometry" />
        </mxCell>
        <mxCell id="nYXTh7Ou2DbSZ5SwQx2i-28" value="" style="endArrow=classic;html=1;rounded=0;exitX=0.5;exitY=0;exitDx=0;exitDy=0;entryX=0.338;entryY=0.975;entryDx=0;entryDy=0;entryPerimeter=0;" edge="1" parent="1" source="nYXTh7Ou2DbSZ5SwQx2i-22" target="nYXTh7Ou2DbSZ5SwQx2i-11">
          <mxGeometry width="50" height="50" relative="1" as="geometry">
            <mxPoint x="450" y="540" as="sourcePoint" />
            <mxPoint x="500" y="490" as="targetPoint" />
          </mxGeometry>
        </mxCell>
        <mxCell id="nYXTh7Ou2DbSZ5SwQx2i-31" value="" style="endArrow=classic;html=1;rounded=0;exitX=0;exitY=0;exitDx=0;exitDy=0;entryX=0.163;entryY=0.938;entryDx=0;entryDy=0;entryPerimeter=0;" edge="1" parent="1" source="nYXTh7Ou2DbSZ5SwQx2i-11" target="nYXTh7Ou2DbSZ5SwQx2i-15">
          <mxGeometry width="50" height="50" relative="1" as="geometry">
            <mxPoint x="450" y="540" as="sourcePoint" />
            <mxPoint x="500" y="490" as="targetPoint" />
          </mxGeometry>
        </mxCell>
        <mxCell id="nYXTh7Ou2DbSZ5SwQx2i-32" value="" style="endArrow=classic;html=1;rounded=0;exitX=1;exitY=1;exitDx=0;exitDy=0;entryX=1;entryY=0;entryDx=0;entryDy=0;" edge="1" parent="1" source="nYXTh7Ou2DbSZ5SwQx2i-15" target="nYXTh7Ou2DbSZ5SwQx2i-11">
          <mxGeometry width="50" height="50" relative="1" as="geometry">
            <mxPoint x="450" y="540" as="sourcePoint" />
            <mxPoint x="500" y="490" as="targetPoint" />
          </mxGeometry>
        </mxCell>
        <mxCell id="nYXTh7Ou2DbSZ5SwQx2i-33" value="" style="endArrow=classic;html=1;rounded=0;exitX=1;exitY=0.5;exitDx=0;exitDy=0;entryX=0.175;entryY=0.938;entryDx=0;entryDy=0;entryPerimeter=0;" edge="1" parent="1" source="nYXTh7Ou2DbSZ5SwQx2i-11" target="nYXTh7Ou2DbSZ5SwQx2i-14">
          <mxGeometry width="50" height="50" relative="1" as="geometry">
            <mxPoint x="450" y="540" as="sourcePoint" />
            <mxPoint x="400" y="410" as="targetPoint" />
          </mxGeometry>
        </mxCell>
        <mxCell id="nYXTh7Ou2DbSZ5SwQx2i-36" value="" style="endArrow=classic;html=1;rounded=0;exitX=1;exitY=1;exitDx=0;exitDy=0;entryX=0;entryY=0;entryDx=0;entryDy=0;" edge="1" parent="1" source="nYXTh7Ou2DbSZ5SwQx2i-14" target="nYXTh7Ou2DbSZ5SwQx2i-13">
          <mxGeometry width="50" height="50" relative="1" as="geometry">
            <mxPoint x="450" y="540" as="sourcePoint" />
            <mxPoint x="500" y="490" as="targetPoint" />
          </mxGeometry>
        </mxCell>
        <mxCell id="nYXTh7Ou2DbSZ5SwQx2i-41" value="" style="endArrow=classic;html=1;rounded=0;entryX=1;entryY=0;entryDx=0;entryDy=0;exitX=0.763;exitY=0.975;exitDx=0;exitDy=0;exitPerimeter=0;" edge="1" parent="1" source="nYXTh7Ou2DbSZ5SwQx2i-13" target="nYXTh7Ou2DbSZ5SwQx2i-22">
          <mxGeometry width="50" height="50" relative="1" as="geometry">
            <mxPoint x="480" y="540" as="sourcePoint" />
            <mxPoint x="530" y="490" as="targetPoint" />
            <Array as="points">
              <mxPoint x="440" y="570" />
            </Array>
          </mxGeometry>
        </mxCell>
        <mxCell id="nYXTh7Ou2DbSZ5SwQx2i-42" value="" style="endArrow=classic;html=1;rounded=0;exitX=1;exitY=1;exitDx=0;exitDy=0;entryX=0;entryY=0;entryDx=0;entryDy=0;" edge="1" parent="1" source="nYXTh7Ou2DbSZ5SwQx2i-11" target="nYXTh7Ou2DbSZ5SwQx2i-12">
          <mxGeometry width="50" height="50" relative="1" as="geometry">
            <mxPoint x="310" y="440" as="sourcePoint" />
            <mxPoint x="384" y="380" as="targetPoint" />
          </mxGeometry>
        </mxCell>
        <mxCell id="nYXTh7Ou2DbSZ5SwQx2i-43" value="" style="endArrow=classic;html=1;rounded=0;exitX=1;exitY=0;exitDx=0;exitDy=0;" edge="1" parent="1" source="nYXTh7Ou2DbSZ5SwQx2i-12" target="nYXTh7Ou2DbSZ5SwQx2i-13">
          <mxGeometry width="50" height="50" relative="1" as="geometry">
            <mxPoint x="480" y="540" as="sourcePoint" />
            <mxPoint x="530" y="490" as="targetPoint" />
          </mxGeometry>
        </mxCell>
        <mxCell id="nYXTh7Ou2DbSZ5SwQx2i-44" value="eps" style="text;html=1;align=center;verticalAlign=middle;resizable=0;points=[];autosize=1;strokeColor=none;fillColor=none;" vertex="1" parent="1">
          <mxGeometry x="230" y="558" width="40" height="30" as="geometry" />
        </mxCell>
        <mxCell id="nYXTh7Ou2DbSZ5SwQx2i-45" value="eps" style="text;html=1;align=center;verticalAlign=middle;resizable=0;points=[];autosize=1;strokeColor=none;fillColor=none;" vertex="1" parent="1">
          <mxGeometry x="190" y="345" width="40" height="30" as="geometry" />
        </mxCell>
        <mxCell id="nYXTh7Ou2DbSZ5SwQx2i-46" value="eps" style="text;html=1;align=center;verticalAlign=middle;resizable=0;points=[];autosize=1;strokeColor=none;fillColor=none;" vertex="1" parent="1">
          <mxGeometry x="330" y="395" width="40" height="30" as="geometry" />
        </mxCell>
        <mxCell id="nYXTh7Ou2DbSZ5SwQx2i-47" value="eps" style="text;html=1;align=center;verticalAlign=middle;resizable=0;points=[];autosize=1;strokeColor=none;fillColor=none;" vertex="1" parent="1">
          <mxGeometry x="290" y="470" width="40" height="30" as="geometry" />
        </mxCell>
        <mxCell id="nYXTh7Ou2DbSZ5SwQx2i-48" value="eps" style="text;html=1;align=center;verticalAlign=middle;resizable=0;points=[];autosize=1;strokeColor=none;fillColor=none;" vertex="1" parent="1">
          <mxGeometry x="480" y="520" width="40" height="30" as="geometry" />
        </mxCell>
        <mxCell id="nYXTh7Ou2DbSZ5SwQx2i-49" value="a" style="text;html=1;align=center;verticalAlign=middle;resizable=0;points=[];autosize=1;strokeColor=none;fillColor=none;" vertex="1" parent="1">
          <mxGeometry x="455" y="348" width="30" height="30" as="geometry" />
        </mxCell>
        <mxCell id="nYXTh7Ou2DbSZ5SwQx2i-50" value="b" style="text;html=1;align=center;verticalAlign=middle;resizable=0;points=[];autosize=1;strokeColor=none;fillColor=none;" vertex="1" parent="1">
          <mxGeometry x="445" y="468" width="30" height="30" as="geometry" />
        </mxCell>
        <mxCell id="nYXTh7Ou2DbSZ5SwQx2i-51" value="a" style="text;html=1;align=center;verticalAlign=middle;resizable=0;points=[];autosize=1;strokeColor=none;fillColor=none;" vertex="1" parent="1">
          <mxGeometry x="295" y="338" width="30" height="30" as="geometry" />
        </mxCell>
        <mxCell id="nYXTh7Ou2DbSZ5SwQx2i-52" value="" style="endArrow=classic;html=1;rounded=0;entryX=0;entryY=0.5;entryDx=0;entryDy=0;exitX=1;exitY=0.5;exitDx=0;exitDy=0;" edge="1" parent="1" source="nYXTh7Ou2DbSZ5SwQx2i-22" target="nYXTh7Ou2DbSZ5SwQx2i-20">
          <mxGeometry width="50" height="50" relative="1" as="geometry">
            <mxPoint x="480" y="560" as="sourcePoint" />
            <mxPoint x="530" y="510" as="targetPoint" />
          </mxGeometry>
        </mxCell>
        <mxCell id="nYXTh7Ou2DbSZ5SwQx2i-53" value="" style="endArrow=classic;html=1;rounded=0;entryX=0;entryY=0;entryDx=0;entryDy=0;exitX=0.95;exitY=0.825;exitDx=0;exitDy=0;exitPerimeter=0;" edge="1" parent="1" source="nYXTh7Ou2DbSZ5SwQx2i-20" target="nYXTh7Ou2DbSZ5SwQx2i-19">
          <mxGeometry width="50" height="50" relative="1" as="geometry">
            <mxPoint x="270" y="750" as="sourcePoint" />
            <mxPoint x="340" y="750" as="targetPoint" />
          </mxGeometry>
        </mxCell>
        <mxCell id="nYXTh7Ou2DbSZ5SwQx2i-54" value="" style="endArrow=classic;html=1;rounded=0;entryX=0;entryY=1;entryDx=0;entryDy=0;exitX=1;exitY=0;exitDx=0;exitDy=0;" edge="1" parent="1" source="nYXTh7Ou2DbSZ5SwQx2i-19" target="nYXTh7Ou2DbSZ5SwQx2i-24">
          <mxGeometry width="50" height="50" relative="1" as="geometry">
            <mxPoint x="280" y="760" as="sourcePoint" />
            <mxPoint x="350" y="760" as="targetPoint" />
          </mxGeometry>
        </mxCell>
        <mxCell id="nYXTh7Ou2DbSZ5SwQx2i-55" value="" style="endArrow=classic;html=1;rounded=0;entryX=0;entryY=1;entryDx=0;entryDy=0;exitX=1;exitY=0;exitDx=0;exitDy=0;" edge="1" parent="1" source="nYXTh7Ou2DbSZ5SwQx2i-20" target="nYXTh7Ou2DbSZ5SwQx2i-23">
          <mxGeometry width="50" height="50" relative="1" as="geometry">
            <mxPoint x="290" y="770" as="sourcePoint" />
            <mxPoint x="360" y="770" as="targetPoint" />
          </mxGeometry>
        </mxCell>
        <mxCell id="nYXTh7Ou2DbSZ5SwQx2i-56" value="" style="endArrow=classic;html=1;rounded=0;entryX=0.063;entryY=0.275;entryDx=0;entryDy=0;exitX=1;exitY=1;exitDx=0;exitDy=0;entryPerimeter=0;" edge="1" parent="1" source="nYXTh7Ou2DbSZ5SwQx2i-23" target="nYXTh7Ou2DbSZ5SwQx2i-24">
          <mxGeometry width="50" height="50" relative="1" as="geometry">
            <mxPoint x="300" y="780" as="sourcePoint" />
            <mxPoint x="370" y="780" as="targetPoint" />
          </mxGeometry>
        </mxCell>
        <mxCell id="nYXTh7Ou2DbSZ5SwQx2i-59" value="6" style="ellipse;whiteSpace=wrap;html=1;aspect=fixed;" vertex="1" parent="1">
          <mxGeometry x="710" y="700" width="60" height="60" as="geometry" />
        </mxCell>
        <mxCell id="nYXTh7Ou2DbSZ5SwQx2i-62" value="eps" style="text;html=1;align=center;verticalAlign=middle;resizable=0;points=[];autosize=1;strokeColor=none;fillColor=none;" vertex="1" parent="1">
          <mxGeometry x="270" y="750" width="40" height="30" as="geometry" />
        </mxCell>
        <mxCell id="nYXTh7Ou2DbSZ5SwQx2i-63" value="eps" style="text;html=1;align=center;verticalAlign=middle;resizable=0;points=[];autosize=1;strokeColor=none;fillColor=none;" vertex="1" parent="1">
          <mxGeometry x="370" y="660" width="40" height="30" as="geometry" />
        </mxCell>
        <mxCell id="nYXTh7Ou2DbSZ5SwQx2i-64" value="eps" style="text;html=1;align=center;verticalAlign=middle;resizable=0;points=[];autosize=1;strokeColor=none;fillColor=none;" vertex="1" parent="1">
          <mxGeometry x="380" y="780" width="40" height="30" as="geometry" />
        </mxCell>
        <mxCell id="nYXTh7Ou2DbSZ5SwQx2i-65" value="eps" style="text;html=1;align=center;verticalAlign=middle;resizable=0;points=[];autosize=1;strokeColor=none;fillColor=none;" vertex="1" parent="1">
          <mxGeometry x="530" y="780" width="40" height="30" as="geometry" />
        </mxCell>
        <mxCell id="nYXTh7Ou2DbSZ5SwQx2i-66" value="eps" style="text;html=1;align=center;verticalAlign=middle;resizable=0;points=[];autosize=1;strokeColor=none;fillColor=none;" vertex="1" parent="1">
          <mxGeometry x="640" y="740" width="40" height="30" as="geometry" />
        </mxCell>
        <mxCell id="nYXTh7Ou2DbSZ5SwQx2i-67" value="b" style="text;html=1;align=center;verticalAlign=middle;resizable=0;points=[];autosize=1;strokeColor=none;fillColor=none;" vertex="1" parent="1">
          <mxGeometry x="515" y="660" width="30" height="30" as="geometry" />
        </mxCell>
        <mxCell id="nYXTh7Ou2DbSZ5SwQx2i-68" value="1" style="text;html=1;align=center;verticalAlign=middle;resizable=0;points=[];autosize=1;strokeColor=none;fillColor=none;" vertex="1" parent="1">
          <mxGeometry x="205" y="725" width="30" height="30" as="geometry" />
        </mxCell>
      </root>
    </mxGraphModel>
  </diagram>
</mxfile>
